<svg width="300" height="300" viewBox="0 0 300 300" fill="none" xmlns="http://www.w3.org/2000/svg">
<path d="M50.3333 236C58.4335 236 65 242.566 65 250.667L65 280L153 280L153 243.333L72.3333 243.333C64.2332 243.333 57.6667 236.767 57.6667 228.667L57.6667 199.333C57.6667 191.233 64.2332 184.667 72.3333 184.667L153 184.667L153 148L65 148L65 177.333C65 185.434 58.4335 192 50.3333 192L21 192L21 236L50.3333 236Z" fill="url(#paint0_linear_1412_5)"/>
<path d="M153 143H65V113.667C65 105.566 58.4335 99 50.3333 99H21V55H50.3333C58.4335 55 65 48.4335 65 40.3333V11H153V143ZM72.3333 47.6667C64.2332 47.6667 57.6667 54.2332 57.6667 62.3333V91.6667C57.6667 99.7668 64.2332 106.333 72.3333 106.333H116.333V47.6667H72.3333Z" fill="url(#paint1_linear_1412_5)"/>
<path d="M176.435 259C176.355 258.006 175.982 257.23 175.316 256.673C174.66 256.116 173.661 255.838 172.318 255.838C171.463 255.838 170.762 255.942 170.215 256.151C169.678 256.35 169.281 256.624 169.022 256.972C168.763 257.32 168.629 257.717 168.619 258.165C168.599 258.533 168.664 258.866 168.813 259.164C168.972 259.452 169.221 259.716 169.559 259.955C169.897 260.183 170.33 260.392 170.857 260.581C171.384 260.77 172.01 260.939 172.736 261.088L175.241 261.625C176.932 261.983 178.379 262.455 179.582 263.042C180.785 263.629 181.769 264.32 182.535 265.115C183.3 265.901 183.862 266.786 184.22 267.77C184.588 268.754 184.777 269.828 184.787 270.991C184.777 273 184.275 274.7 183.281 276.092C182.286 277.484 180.864 278.543 179.015 279.269C177.175 279.995 174.963 280.358 172.378 280.358C169.723 280.358 167.406 279.965 165.428 279.18C163.459 278.394 161.928 277.186 160.834 275.555C159.75 273.915 159.203 271.817 159.193 269.261H167.068C167.118 270.196 167.352 270.982 167.769 271.618C168.187 272.254 168.773 272.737 169.529 273.065C170.295 273.393 171.205 273.557 172.259 273.557C173.143 273.557 173.884 273.447 174.481 273.229C175.077 273.01 175.53 272.707 175.838 272.319C176.146 271.931 176.305 271.489 176.315 270.991C176.305 270.524 176.151 270.116 175.853 269.768C175.565 269.411 175.087 269.092 174.421 268.814C173.755 268.526 172.855 268.257 171.722 268.009L168.679 267.352C165.974 266.766 163.842 265.786 162.281 264.414C160.729 263.032 159.959 261.148 159.969 258.761C159.959 256.822 160.476 255.127 161.52 253.675C162.574 252.214 164.031 251.075 165.89 250.26C167.759 249.445 169.902 249.037 172.318 249.037C174.784 249.037 176.917 249.45 178.717 250.275C180.516 251.1 181.903 252.263 182.878 253.765C183.862 255.256 184.359 257.001 184.369 259H176.435ZM187.941 280V249.455H196.234V261.386H207.211V249.455H215.504V280H207.211V268.068H196.234V280H187.941ZM249.032 264.727C249.032 268.128 248.371 270.996 247.049 273.333C245.726 275.66 243.941 277.425 241.694 278.628C239.447 279.821 236.941 280.418 234.177 280.418C231.393 280.418 228.877 279.816 226.63 278.613C224.393 277.4 222.613 275.63 221.291 273.303C219.978 270.967 219.322 268.108 219.322 264.727C219.322 261.327 219.978 258.463 221.291 256.136C222.613 253.8 224.393 252.035 226.63 250.842C228.877 249.638 231.393 249.037 234.177 249.037C236.941 249.037 239.447 249.638 241.694 250.842C243.941 252.035 245.726 253.8 247.049 256.136C248.371 258.463 249.032 261.327 249.032 264.727ZM240.501 264.727C240.501 262.898 240.257 261.357 239.77 260.104C239.293 258.841 238.582 257.886 237.637 257.24C236.703 256.584 235.549 256.256 234.177 256.256C232.805 256.256 231.647 256.584 230.702 257.24C229.767 257.886 229.056 258.841 228.569 260.104C228.092 261.357 227.853 262.898 227.853 264.727C227.853 266.557 228.092 268.103 228.569 269.366C229.056 270.619 229.767 271.573 230.702 272.229C231.647 272.876 232.805 273.199 234.177 273.199C235.549 273.199 236.703 272.876 237.637 272.229C238.582 271.573 239.293 270.619 239.77 269.366C240.257 268.103 240.501 266.557 240.501 264.727ZM252.869 280V249.455H266.054C268.321 249.455 270.305 249.902 272.005 250.797C273.705 251.692 275.028 252.95 275.972 254.57C276.917 256.191 277.389 258.085 277.389 260.253C277.389 262.44 276.902 264.335 275.927 265.935C274.963 267.536 273.606 268.769 271.856 269.634C270.116 270.499 268.082 270.932 265.756 270.932H257.881V264.489H264.085C265.059 264.489 265.89 264.32 266.576 263.982C267.272 263.634 267.804 263.141 268.172 262.505C268.55 261.869 268.738 261.118 268.738 260.253C268.738 259.378 268.55 258.632 268.172 258.016C267.804 257.389 267.272 256.912 266.576 256.584C265.89 256.246 265.059 256.077 264.085 256.077H261.162V280H252.869Z" fill="#664CA6"/>
<defs>
<linearGradient id="paint0_linear_1412_5" x1="146.4" y1="257.56" x2="46.96" y2="184.08" gradientUnits="userSpaceOnUse">
<stop stop-color="#664CA6"/>
<stop offset="0.442308" stop-color="#A94795"/>
<stop offset="1" stop-color="#B9407F"/>
</linearGradient>
<linearGradient id="paint1_linear_1412_5" x1="74.5" y1="139" x2="123.08" y2="18.92" gradientUnits="userSpaceOnUse">
<stop stop-color="#A2325B"/>
<stop offset="0.509615" stop-color="#A94795"/>
<stop offset="0.990385" stop-color="#664CA6"/>
</linearGradient>
</defs>
</svg>
